<?xml version="1.0" standalone="no"?>
<!DOCTYPE svg PUBLIC "-//W3C//DTD SVG 20010904//EN"
 "http://www.w3.org/TR/2001/REC-SVG-20010904/DTD/svg10.dtd">
<svg version="1.0" xmlns="http://www.w3.org/2000/svg"
 width="320.000000pt" height="320.000000pt" viewBox="0 0 320.000000 320.000000"
 preserveAspectRatio="xMidYMid meet">
<metadata>
Created by potrace 1.16, written by Peter Selinger 2001-2019
</metadata>
<g transform="translate(0.000000,320.000000) scale(0.100000,-0.100000)"
fill="#000000" stroke="none">
<path d="M1462 3019 c-458 -44 -839 -382 -954 -846 -26 -105 -31 -348 -10
-448 88 -406 360 -716 737 -839 106 -35 115 -34 115 8 0 32 -2 34 -59 50 -273
76 -539 311 -650 573 -66 153 -76 210 -76 413 0 164 3 194 23 265 148 510 651
830 1163 740 399 -70 712 -358 820 -755 32 -115 37 -327 11 -450 -52 -250
-194 -474 -396 -627 -77 -57 -210 -125 -304 -153 -71 -22 -72 -22 -72 -56 0
-40 5 -41 94 -14 391 121 684 454 757 860 7 41 13 129 12 195 -2 284 -103 538
-293 738 -112 118 -191 177 -325 242 -128 62 -233 91 -371 105 -110 11 -105
11 -222 -1z"/>
<path d="M1542 2713 c-22 -20 -659 -1122 -667 -1156 -3 -12 1 -31 9 -42 14
-19 26 -20 278 -20 l263 0 5 165 c6 186 10 200 81 239 77 44 172 10 210 -73
15 -34 19 -66 19 -188 l0 -148 248 0 c270 0 292 4 292 56 0 26 -641 1150 -668
1172 -22 17 -46 15 -70 -5z"/>
<path d="M1501 1796 c-8 -9 -11 -77 -9 -222 l3 -209 79 -3 c57 -2 82 1 87 10
5 7 9 104 9 215 0 190 -1 203 -19 213 -29 15 -136 13 -150 -4z"/>
<path d="M470 569 c-81 -47 -111 -146 -68 -229 53 -103 180 -131 264 -58 43
38 64 77 64 118 l0 30 -85 0 -85 0 0 -30 c0 -28 2 -30 40 -30 22 0 40 -4 40
-9 0 -19 -45 -41 -83 -41 -97 0 -125 139 -37 185 26 13 37 14 66 5 20 -7 38
-18 41 -26 6 -17 93 -20 93 -2 0 21 -49 75 -83 92 -48 22 -124 20 -167 -5z"/>
<path d="M820 420 l0 -170 100 0 100 0 0 35 0 35 -60 0 -60 0 0 135 0 135 -40
0 -40 0 0 -170z"/>
<path d="M1102 458 c2 -107 7 -138 21 -160 56 -82 206 -75 249 12 14 28 18 61
18 158 l0 122 -39 0 -39 0 -3 -120 c-3 -77 -8 -123 -16 -132 -18 -17 -82 -15
-94 3 -5 7 -9 67 -9 132 l0 117 -46 0 -46 0 4 -132z"/>
<path d="M1480 420 l0 -170 100 0 100 0 0 35 0 35 -60 0 -60 0 0 30 0 30 61 0
60 0 -3 38 -3 37 -57 3 c-54 3 -58 5 -58 27 0 24 3 25 60 25 l60 0 0 40 0 40
-100 0 -100 0 0 -170z"/>
<path d="M1815 578 c-2 -7 -16 -74 -30 -148 -14 -74 -27 -145 -30 -157 -5 -21
-2 -23 39 -23 51 0 49 -4 67 117 7 46 14 81 17 79 2 -3 16 -47 31 -98 l27 -93
41 -3 41 -3 17 58 c9 32 22 78 29 103 l13 45 11 -50 c6 -27 14 -74 18 -102 l7
-53 43 0 c29 0 44 4 44 13 0 6 -14 82 -30 167 -16 85 -30 156 -30 158 0 1 -22
2 -48 2 l-49 0 -28 -101 c-16 -55 -32 -102 -35 -104 -4 -2 -20 42 -37 98 l-30
102 -47 3 c-31 2 -48 -1 -51 -10z"/>
<path d="M2280 420 l0 -170 40 0 40 0 0 170 0 170 -40 0 -40 0 0 -170z"/>
<path d="M2545 576 c-62 -28 -95 -85 -95 -163 0 -128 135 -210 250 -151 40 20
90 76 90 99 0 15 -88 10 -97 -5 -12 -19 -48 -36 -78 -36 -38 0 -85 50 -85 90
0 92 104 142 159 76 13 -16 101 -24 101 -9 0 19 -49 74 -81 92 -43 24 -118 27
-164 7z"/>
</g>
</svg>
